<svg xmlns="http://www.w3.org/2000/svg" xmlns:xlink="http://www.w3.org/1999/xlink" width="633" zoomAndPan="magnify" viewBox="0 0 474.75 293.25" height="391" preserveAspectRatio="xMidYMid meet" version="1.0"><defs><g/><clipPath id="aba6bf3d85"><path d="M 75.375 76 L 398.71875 76 L 398.71875 216 L 75.375 216 Z M 75.375 76 " clip-rule="nonzero"/></clipPath></defs><g clip-path="url(#aba6bf3d85)"><path fill="#302e2e" d="M 345.652344 161.300781 L 345.652344 130.0625 L 350.929688 130.0625 L 350.929688 120.230469 L 316.863281 120.230469 L 316.863281 130.0625 L 322.140625 130.0625 L 322.140625 142.867188 L 237.460938 76.46875 L 237.300781 76.667969 L 237.152344 76.46875 L 75.566406 203.175781 L 85.261719 215.558594 L 237.308594 96.332031 L 389.347656 215.558594 L 399.046875 203.175781 Z M 345.652344 161.300781 " fill-opacity="1" fill-rule="nonzero"/></g><g fill="#302e2e" fill-opacity="1"><g transform="translate(164.343605, 204.102074)"><g><path d="M 23.65625 -33.890625 C 20.90625 -33.890625 18.757812 -32.757812 17.21875 -30.5 C 15.675781 -28.25 14.90625 -25.148438 14.90625 -21.203125 C 14.90625 -12.972656 18.035156 -8.859375 24.296875 -8.859375 C 26.179688 -8.859375 28.007812 -9.117188 29.78125 -9.640625 C 31.5625 -10.171875 33.347656 -10.804688 35.140625 -11.546875 L 35.140625 -1.78125 C 31.578125 -0.207031 27.539062 0.578125 23.03125 0.578125 C 16.582031 0.578125 11.640625 -1.289062 8.203125 -5.03125 C 4.765625 -8.769531 3.046875 -14.175781 3.046875 -21.25 C 3.046875 -25.675781 3.878906 -29.566406 5.546875 -32.921875 C 7.210938 -36.273438 9.609375 -38.851562 12.734375 -40.65625 C 15.859375 -42.457031 19.535156 -43.359375 23.765625 -43.359375 C 28.390625 -43.359375 32.804688 -42.351562 37.015625 -40.34375 L 33.46875 -31.25 C 31.894531 -31.988281 30.316406 -32.613281 28.734375 -33.125 C 27.160156 -33.632812 25.46875 -33.890625 23.65625 -33.890625 Z M 23.65625 -33.890625 "/></g></g><g transform="translate(203.200276, 204.102074)"><g><path d="M 25.546875 0 L 23.359375 -4.390625 L 23.125 -4.390625 C 21.582031 -2.472656 20.007812 -1.164062 18.40625 -0.46875 C 16.8125 0.226562 14.75 0.578125 12.21875 0.578125 C 9.101562 0.578125 6.644531 -0.351562 4.84375 -2.21875 C 3.050781 -4.09375 2.15625 -6.722656 2.15625 -10.109375 C 2.15625 -13.640625 3.382812 -16.265625 5.84375 -17.984375 C 8.300781 -19.710938 11.859375 -20.6875 16.515625 -20.90625 L 22.046875 -21.078125 L 22.046875 -21.546875 C 22.046875 -24.273438 20.703125 -25.640625 18.015625 -25.640625 C 15.597656 -25.640625 12.523438 -24.820312 8.796875 -23.1875 L 5.5 -30.734375 C 9.351562 -32.710938 14.222656 -33.703125 20.109375 -33.703125 C 24.359375 -33.703125 27.644531 -32.648438 29.96875 -30.546875 C 32.300781 -28.441406 33.46875 -25.5 33.46875 -21.71875 L 33.46875 0 Z M 17.078125 -7.484375 C 18.460938 -7.484375 19.644531 -7.921875 20.625 -8.796875 C 21.613281 -9.671875 22.109375 -10.8125 22.109375 -12.21875 L 22.109375 -14.796875 L 19.46875 -14.671875 C 15.707031 -14.535156 13.828125 -13.15625 13.828125 -10.53125 C 13.828125 -8.5 14.910156 -7.484375 17.078125 -7.484375 Z M 17.078125 -7.484375 "/></g></g><g transform="translate(240.507358, 204.102074)"><g><path d="M 29.53125 -10.171875 C 29.53125 -6.628906 28.320312 -3.953125 25.90625 -2.140625 C 23.488281 -0.328125 20.019531 0.578125 15.5 0.578125 C 13.039062 0.578125 10.90625 0.445312 9.09375 0.1875 C 7.28125 -0.0703125 5.425781 -0.550781 3.53125 -1.25 L 3.53125 -10.40625 C 5.3125 -9.625 7.257812 -8.976562 9.375 -8.46875 C 11.488281 -7.96875 13.375 -7.71875 15.03125 -7.71875 C 17.5 -7.71875 18.734375 -8.28125 18.734375 -9.40625 C 18.734375 -10 18.390625 -10.523438 17.703125 -10.984375 C 17.015625 -11.441406 15.003906 -12.332031 11.671875 -13.65625 C 8.628906 -14.90625 6.503906 -16.320312 5.296875 -17.90625 C 4.085938 -19.5 3.484375 -21.507812 3.484375 -23.9375 C 3.484375 -27.019531 4.671875 -29.414062 7.046875 -31.125 C 9.421875 -32.84375 12.78125 -33.703125 17.125 -33.703125 C 19.3125 -33.703125 21.363281 -33.460938 23.28125 -32.984375 C 25.207031 -32.515625 27.203125 -31.820312 29.265625 -30.90625 L 26.171875 -23.53125 C 24.648438 -24.21875 23.039062 -24.796875 21.34375 -25.265625 C 19.644531 -25.742188 18.257812 -25.984375 17.1875 -25.984375 C 15.320312 -25.984375 14.390625 -25.523438 14.390625 -24.609375 C 14.390625 -24.046875 14.710938 -23.5625 15.359375 -23.15625 C 16.015625 -22.757812 17.898438 -21.953125 21.015625 -20.734375 C 23.335938 -19.773438 25.066406 -18.835938 26.203125 -17.921875 C 27.347656 -17.003906 28.1875 -15.925781 28.71875 -14.6875 C 29.257812 -13.445312 29.53125 -11.941406 29.53125 -10.171875 Z M 29.53125 -10.171875 "/></g></g><g transform="translate(272.434736, 204.102074)"><g><path d="M 25.546875 0 L 23.359375 -4.390625 L 23.125 -4.390625 C 21.582031 -2.472656 20.007812 -1.164062 18.40625 -0.46875 C 16.8125 0.226562 14.75 0.578125 12.21875 0.578125 C 9.101562 0.578125 6.644531 -0.351562 4.84375 -2.21875 C 3.050781 -4.09375 2.15625 -6.722656 2.15625 -10.109375 C 2.15625 -13.640625 3.382812 -16.265625 5.84375 -17.984375 C 8.300781 -19.710938 11.859375 -20.6875 16.515625 -20.90625 L 22.046875 -21.078125 L 22.046875 -21.546875 C 22.046875 -24.273438 20.703125 -25.640625 18.015625 -25.640625 C 15.597656 -25.640625 12.523438 -24.820312 8.796875 -23.1875 L 5.5 -30.734375 C 9.351562 -32.710938 14.222656 -33.703125 20.109375 -33.703125 C 24.359375 -33.703125 27.644531 -32.648438 29.96875 -30.546875 C 32.300781 -28.441406 33.46875 -25.5 33.46875 -21.71875 L 33.46875 0 Z M 17.078125 -7.484375 C 18.460938 -7.484375 19.644531 -7.921875 20.625 -8.796875 C 21.613281 -9.671875 22.109375 -10.8125 22.109375 -12.21875 L 22.109375 -14.796875 L 19.46875 -14.671875 C 15.707031 -14.535156 13.828125 -13.15625 13.828125 -10.53125 C 13.828125 -8.5 14.910156 -7.484375 17.078125 -7.484375 Z M 17.078125 -7.484375 "/></g></g></g></svg>